Coordinates
version=1
nRows=17
nColumns=34
inDegrees=yes

Units are S.I. units (second, meters, Newtons, ...)
If the header above contains a line with 'inDegrees', this indicates whether rotational values are in degrees (yes) or radians (no).

endheader
time	pelvis_tilt	pelvis_list	pelvis_rotation	pelvis_tx	pelvis_ty	pelvis_tz	hip_flexion_r	hip_adduction_r	hip_rotation_r	knee_angle_r	ankle_angle_r	subtalar_angle_r	mtp_angle_r	hip_flexion_l	hip_adduction_l	hip_rotation_l	knee_angle_l	ankle_angle_l	subtalar_angle_l	mtp_angle_l	lumbar_extension	lumbar_bending	lumbar_rotation	arm_flex_r	arm_add_r	arm_rot_r	elbow_flex_r	pro_sup_r	arm_flex_l	arm_add_l	arm_rot_l	elbow_flex_l	pro_sup_l
      6.98333330	     -4.44663851	      7.08230317	     -2.05147961	      0.51262450	      0.98398693	     -0.00955161	      8.93997302	     -0.22566598	      5.54215985	      9.98738953	      4.41202707	    -11.92261720	      0.00000000	     30.34530946	      3.84130739	      0.95026140	     29.77616436	     -2.33120289	     -4.87616572	      0.00000000	      2.39772148	      1.85845866	      0.01583751	     73.56616376	      5.15208962	     61.73596265	    131.06129957	    101.61581786	     83.75335327	      8.18346849	     68.94581593	    121.62990074	     82.39790537
      7.00000000	     -4.47298056	      7.11390345	     -2.08537051	      0.51450020	      0.98377359	     -0.00815776	      9.24657234	     -0.17909276	      5.45163103	     10.54155987	      4.75772896	    -11.89804760	      0.00000000	     30.64133127	      3.99022182	      1.13242368	     29.70969207	     -2.36164307	     -4.84827948	      0.00000000	      2.55405936	      1.69905002	      0.15408291	     73.79488395	      5.41270739	     61.10245384	    131.55322636	    101.70179188	     83.89021779	      8.19555117	     68.91041113	    121.34956316	     82.58169100
      7.01666670	     -4.40084320	      7.05992077	     -2.25991536	      0.51322061	      0.98557992	     -0.00818327	      9.20716416	     -0.07631925	      5.39080019	     10.57133962	      4.80208661	    -11.93510785	      0.00000000	     30.86432868	      4.02242086	      1.35443746	     29.60818220	     -2.43198652	     -4.74204485	      0.00000000	      2.50196909	      1.60466663	      0.27023567	     73.78625285	      5.42155103	     61.05673191	    131.58369248	    101.70823384	     83.83628619	      8.13311735	     68.92739488	    121.36871145	     82.59667732
      7.03333330	     -4.38432861	      6.90332903	     -2.25258691	      0.51377775	      0.98570651	     -0.00933547	      9.28915201	      0.03577165	      5.49592879	     10.74611998	      4.97715397	    -11.98576626	      0.00000000	     31.03077732	      4.08211797	      1.94385761	     29.29496948	     -2.74288334	     -4.41749947	      0.00000000	      2.42501439	      1.73062830	      0.45042975	     73.75891994	      5.21654784	     60.93566863	    131.63528134	    101.73041059	     83.80078049	      8.02793634	     68.95530009	    121.48615991	     82.64141229
      7.05000000	     -4.42276704	      6.76212205	     -2.14289260	      0.51465882	      0.98540854	     -0.00944452	      9.37801309	      0.16264861	      5.47118919	     10.96914144	      5.45785070	    -12.22816070	      0.00000000	     31.25225321	      4.13508606	      2.44362165	     29.13367926	     -2.91281800	     -4.24970216	      0.00000000	      2.42562727	      1.85152628	      0.63058905	     73.88940918	      4.95707677	     60.79819781	    131.69234683	    101.77751416	     83.83828623	      8.15276062	     68.97766000	    121.76672961	     82.73010528
      7.06666670	     -4.51898142	      6.68195096	     -2.25651752	      0.51524811	      0.98614650	     -0.00811955	      9.47753161	      0.32345705	      5.37656099	     11.14439804	      5.99623647	    -12.37736748	      0.00000000	     31.58754526	      4.09300353	      2.89603552	     29.08962477	     -2.95237084	     -4.20652313	      0.00000000	      2.48844268	      1.76154714	      1.28209807	     74.36096354	      5.06691353	     60.66022461	    131.96266322	    101.88926772	     84.03989314	      8.61701331	     68.95606642	    122.13958574	     82.93134118
      7.08333330	     -4.52468967	      6.82161193	     -2.27146274	      0.51650441	      0.98491208	     -0.00901736	      9.37503035	      0.25512024	      5.06119168	     11.37338445	      6.69077444	    -12.59346079	      0.00000000	     31.86650385	      4.29678913	      3.10932294	     29.14104883	     -3.01441809	     -4.10585421	      0.00000000	      2.79352211	      1.35218018	      1.66740414	     74.62350878	      5.20322775	     60.59168721	    132.55058916	    102.02588135	     84.23261622	      8.90747582	     68.65612243	    122.68653267	     83.14407062
      7.10000000	     -4.60849020	      6.98638081	     -2.48170631	      0.51434826	      0.98444232	     -0.01002095	      9.46779257	      0.18341073	      4.83200306	     11.71377482	      7.53638838	    -12.73048109	      0.00000000	     32.38286910	      4.45862789	      3.04135879	     29.19860076	     -3.11150071	     -4.18955104	      0.00000000	      2.89534254	      1.08833712	      1.96178277	     75.14269154	      5.08366256	     60.29905111	    133.02321882	    102.15712189	     84.65582667	      8.65856496	     68.29699089	    122.78434209	     83.34509349
      7.11666670	     -4.64271218	      7.05735547	     -2.59214964	      0.51544339	      0.98973349	     -0.00703124	      9.24398244	      0.29115755	      4.84117409	     11.51030732	      8.19432326	    -12.82253024	      0.00000000	     32.60027231	      4.53284817	      3.11360772	     28.87283416	     -3.27700081	     -4.19949156	      0.00000000	      2.94792256	      0.70057584	      2.23975301	     75.01299523	      4.89709128	     60.37087631	    132.87091210	    102.24212341	     84.56793462	      8.43409406	     68.38258603	    122.98937210	     83.46481806
      7.13333330	     -4.72035668	      7.26953355	     -2.83912141	      0.51591665	      0.98349218	     -0.00758924	      9.12979225	      0.16718731	      4.87894826	     11.29855208	      9.38690950	    -12.74972644	      0.00000000	     33.07772800	      4.73268076	      3.05137104	     28.54550466	     -3.47315774	     -4.70808094	      0.00000000	      2.98226582	      0.31147992	      2.30235275	     75.34642674	      4.89725492	     60.33666054	    132.15616685	    102.50805801	     85.06099097	      8.21422400	     68.21979746	    122.92182160	     83.84406999
      7.15000000	     -4.84128873	      7.36137857	     -2.91978491	      0.51573676	      0.98598207	     -0.00803903	      8.76228366	      0.14244809	      5.16700094	     10.44433574	      9.98500813	    -12.75264597	      0.00000000	     33.35336623	      4.93302554	      3.01679090	     27.70356503	     -4.14235226	     -5.15858405	      0.00000000	      3.14203258	      0.08429395	      2.31305003	     75.35493726	      4.45396311	     60.78918322	    131.64502749	    102.73120272	     84.97653692	      7.72631727	     68.16792347	    123.05387103	     84.15751860
      7.16666670	     -4.82260531	      7.49598902	     -2.86086139	      0.51666062	      0.98798972	     -0.00744784	      8.15260884	      0.01577298	      5.49510338	      9.34947924	     10.37914358	    -12.86124494	      0.00000000	     33.42734305	      5.19081965	      2.84905986	     26.63369774	     -4.91411782	     -5.55820316	      0.00000000	      3.24821645	     -0.16545883	      2.08935991	     75.21244504	      4.35556405	     61.80748952	    131.18614226	    102.93804405	     84.72354910	      7.50644494	     68.39752900	    123.38520318	     84.46280004
      7.18333330	     -4.82533546	      7.57087074	     -2.91234422	      0.51860134	      0.97853839	     -0.00850417	      7.83517333	     -0.05881230	      5.66606650	      8.65239885	     11.10446647	    -13.49691519	      0.00000000	     33.89104262	      5.42189496	      2.84064956	     26.29695873	     -5.01484968	     -6.14692134	      0.00000000	      3.24709216	     -0.42467411	      1.89785238	     76.06719404	      4.67242708	     62.27594481	    129.86373823	    103.13423558	     85.50380495	      7.12318579	     67.55334555	    123.72725386	     84.79210716
      7.20000000	     -4.92121138	      7.64717084	     -2.96027228	      0.52015677	      0.97661148	     -0.00956398	      7.64667229	     -0.13935915	      5.94116774	      8.19557258	     11.54242956	    -13.83923441	      0.00000000	     34.41190640	      5.58816754	      2.70161446	     25.84334600	     -5.14443990	     -6.53555064	      0.00000000	      3.31019508	     -0.53933718	      1.70006847	     76.88009297	      4.88895232	     62.18003350	    129.30223165	    103.20516201	     86.26611794	      7.08133658	     67.12780102	    123.21900666	     84.98913207
      7.21666670	     -4.95960432	      7.65532846	     -2.98711814	      0.51827449	      0.97956089	     -0.00873957	      7.48140099	     -0.17503086	      6.04335375	      7.83142407	     12.00439909	    -14.21550077	      0.00000000	     34.97908928	      5.66659194	      2.59865802	     25.46382776	     -5.33212611	     -6.69930717	      0.00000000	      3.26159677	     -0.53502277	      2.08190033	     77.22000150	      5.00018654	     62.25220151	    129.05899444	    103.24134022	     86.61440848	      7.70559225	     66.94234755	    123.33944517	     85.11136693
      7.23333330	     -5.03031408	      7.64517016	     -3.19862152	      0.51771188	      0.97901472	     -0.00858026	      7.51470675	     -0.14334961	      6.43320253	      7.61925610	     12.17727818	    -14.54069987	      0.00000000	     35.57017764	      5.58502742	      2.42016950	     25.05202093	     -5.68677366	     -7.10928249	      0.00000000	      3.05816286	     -0.58629804	      2.53330274	     77.81316349	      4.89217989	     62.20385164	    128.63099838	    103.28250047	     87.07226500	      7.86027834	     66.74059659	    122.88690620	     85.28071924
      7.25000000	     -4.98146335	      7.58526099	     -3.53810328	      0.51634275	      0.98329454	     -0.00873482	      7.66529749	     -0.09663937	      6.60160607	      7.69478287	     12.14001187	    -14.80157803	      0.00000000	     35.78657442	      5.36185859	      2.07502864	     24.13676811	     -6.32780680	     -7.20723282	      0.00000000	      2.82547713	     -0.29253703	      2.81785134	     77.71107356	      4.90590138	     62.46059803	    128.76716111	    103.31993930	     86.97403195	      7.64624656	     66.89667236	    122.21355519	     85.39736220
